<svg width="1024" height="1024" viewBox="0 0 1024 1024" fill="none" xmlns="http://www.w3.org/2000/svg">
  <defs>
    <linearGradient id="bg" x1="160" y1="140" x2="864" y2="884" gradientUnits="userSpaceOnUse">
      <stop stop-color="#FFF3E4"/>
      <stop offset="1" stop-color="#E9FFF8"/>
    </linearGradient>
    <linearGradient id="sun" x1="280" y1="250" x2="780" y2="760" gradientUnits="userSpaceOnUse">
      <stop stop-color="#FF7A3D"/>
      <stop offset="1" stop-color="#FF5A36"/>
    </linearGradient>
    <linearGradient id="check" x1="365" y1="475" x2="710" y2="640" gradientUnits="userSpaceOnUse">
      <stop stop-color="#FFFFFF"/>
      <stop offset="1" stop-color="#F5FCFF"/>
    </linearGradient>
    <filter id="shadow" x="200" y="190" width="660" height="700" filterUnits="userSpaceOnUse" color-interpolation-filters="sRGB">
      <feFlood flood-opacity="0" result="BackgroundImageFix"/>
      <feColorMatrix in="SourceAlpha" type="matrix" values="0 0 0 0 0 0 0 0 0 0 0 0 0 0 0 0 0 0 127 0" result="hardAlpha"/>
      <feOffset dy="16"/>
      <feGaussianBlur stdDeviation="24"/>
      <feComposite in2="hardAlpha" operator="out"/>
      <feColorMatrix type="matrix" values="0 0 0 0 0.984314 0 0 0 0 0.352941 0 0 0 0 0.211765 0 0 0 0.24 0"/>
      <feBlend mode="normal" in2="BackgroundImageFix" result="effect1_dropShadow_1_1"/>
      <feBlend mode="normal" in="SourceGraphic" in2="effect1_dropShadow_1_1" result="shape"/>
    </filter>
  </defs>

  <rect x="64" y="64" width="896" height="896" rx="224" fill="url(#bg)"/>

  <g filter="url(#shadow)">
    <circle cx="512" cy="510" r="268" fill="url(#sun)"/>
  </g>

  <path d="M286 642C333 569 416 520 512 520C608 520 691 569 738 642" stroke="#FFD19E" stroke-width="34" stroke-linecap="round"/>
  <path d="M384 551L481 648L664 459" stroke="url(#check)" stroke-width="72" stroke-linecap="round" stroke-linejoin="round"/>

  <path d="M216 730C296 757 401 776 512 776C623 776 728 757 808 730" stroke="#12A18F" stroke-width="22" stroke-linecap="round" opacity="0.92"/>
</svg>
