<svg width="1024" height="500" viewBox="0 0 1024 500" fill="none" xmlns="http://www.w3.org/2000/svg">
  <defs>
    <linearGradient id="bg" x1="0" y1="0" x2="1024" y2="500" gradientUnits="userSpaceOnUse">
      <stop stop-color="#FFF1E5"/>
      <stop offset="1" stop-color="#E8FFF8"/>
    </linearGradient>
    <linearGradient id="panel" x1="84" y1="80" x2="304" y2="404" gradientUnits="userSpaceOnUse">
      <stop stop-color="#FF7A3D"/>
      <stop offset="1" stop-color="#FF5A36"/>
    </linearGradient>
    <linearGradient id="check" x1="126" y1="248" x2="220" y2="312" gradientUnits="userSpaceOnUse">
      <stop stop-color="#FFFFFF"/>
      <stop offset="1" stop-color="#F4FAFF"/>
    </linearGradient>
  </defs>

  <rect width="1024" height="500" rx="0" fill="url(#bg)"/>

  <circle cx="936" cy="86" r="92" fill="#3A86FF" fill-opacity="0.08"/>
  <circle cx="864" cy="430" r="120" fill="#12A18F" fill-opacity="0.10"/>
  <circle cx="390" cy="38" r="70" fill="#FF5A36" fill-opacity="0.10"/>

  <rect x="78" y="74" width="250" height="346" rx="46" fill="url(#panel)"/>
  <rect x="126" y="52" width="154" height="34" rx="17" fill="#12A18F"/>
  <rect x="112" y="156" width="172" height="9" rx="4.5" fill="#FFD8BF"/>
  <rect x="112" y="178" width="144" height="9" rx="4.5" fill="#FFD8BF"/>
  <rect x="112" y="200" width="112" height="9" rx="4.5" fill="#FFD8BF"/>
  <path d="M126 258L156 288L234 210" stroke="url(#check)" stroke-width="24" stroke-linecap="round" stroke-linejoin="round"/>

  <text x="376" y="228" font-size="98" font-family="Poppins, Sora, Montserrat, sans-serif" font-weight="800" fill="#22303A">ReportaPro</text>
  <text x="376" y="286" font-size="30" font-family="Poppins, Sora, Montserrat, sans-serif" font-weight="500" fill="#4F5E6B">Control diario de equipos y reportes en campo</text>

  <rect x="376" y="322" width="244" height="54" rx="27" fill="#12A18F"/>
  <text x="498" y="357" text-anchor="middle" font-size="25" font-family="Poppins, Sora, Montserrat, sans-serif" font-weight="700" fill="#FFFFFF">Listo para Android</text>
</svg>
